<?xml version="1.0" encoding="UTF-8"?>
<!DOCTYPE svg PUBLIC "-//W3C//DTD SVG 1.1//EN" "http://www.w3.org/Graphics/SVG/1.1/DTD/svg11.dtd">
<!-- Creator: CorelDRAW X5 -->
<svg xmlns="http://www.w3.org/2000/svg" xml:space="preserve" width="2504px" height="2504px" style="shape-rendering:geometricPrecision; text-rendering:geometricPrecision; image-rendering:optimizeQuality; fill-rule:evenodd; clip-rule:evenodd"
viewBox="0 0 122184 122184"
 xmlns:xlink="http://www.w3.org/1999/xlink">
 <defs>
  <style type="text/css">
   <![CDATA[
    .str0 {stroke:#E31E24;stroke-width:1152.68}
    .fil0 {fill:#FECC00}
   ]]>
  </style>
 </defs>
 <g id="Réteg_x0020_1">
  <metadata id="CorelCorpID_0Corel-Layer"/>
  <path class="fil0 str0" d="M41870 38656c-2273,0 -3592,1100 -3592,3519l0 10411c0,2420 1319,3519 3592,3519 2273,0 3666,-1100 3666,-3519l0 -10411c0,-2420 -1393,-3519 -3666,-3519zm77354 15528c-1984,-2532 -2645,-5857 -1781,-8956 1384,-4964 -799,-10233 -5287,-12765 -2802,-1580 -4685,-4399 -5073,-7592 -621,-5116 -4653,-9148 -9770,-9770 -3193,-388 -6012,-2271 -7592,-5073 -2532,-4489 -7800,-6671 -12765,-5287 -3099,864 -6423,202 -8956,-1781 -4057,-3178 -9759,-3178 -13816,0 -2532,1984 -5857,2645 -8956,1781 -4964,-1384 -10233,799 -12765,5287 -1580,2802 -4399,4685 -7593,5073 -5116,621 -9148,4653 -9769,9770 -388,3193 -2271,6012 -5073,7592 -4489,2532 -6671,7800 -5287,12765 864,3099 202,6423 -1781,8956 -3178,4057 -3178,9759 0,13816 1984,2532 2645,5857 1781,8956 -1384,4964 799,10233 5287,12765 2802,1580 4685,4399 5073,7592 621,5116 4653,9148 9770,9770 3193,388 6012,2271 7593,5073 2532,4489 7800,6671 12765,5287 3099,-864 6423,-202 8956,1781 4057,3178 9759,3178 13816,0 2532,-1984 5857,-2645 8956,-1781 4964,1384 10233,-798 12765,-5287 1580,-2802 4399,-4685 7592,-5073 5116,-621 9148,-4653 9770,-9770 388,-3193 2271,-6012 5073,-7592 4489,-2532 6671,-7800 5287,-12765 -864,-3099 -202,-6423 1781,-8956 3178,-4057 3178,-9759 0,-13816zm-38580 8079c-2272,0 -3593,1100 -3593,3519l0 10411c0,2419 1320,3519 3593,3519 2273,0 3666,-1100 3666,-3519l0 -10411c0,-2419 -1393,-3519 -3666,-3519zm10997 13930c0,7258 -4839,9897 -10997,9897 -6232,0 -10997,-2639 -10997,-9897l0 -10411c0,-7258 4765,-9897 10997,-9897 6158,0 10997,2639 10997,9897l0 10411zm-39838 11217c-513,1100 -1906,1833 -3299,1833 -2493,0 -4106,-2053 -4106,-3886 0,-440 147,-953 367,-1393l25733 -52860c587,-1246 1759,-1833 3079,-1833 2053,0 4325,1540 4325,3886 0,440 -73,953 -293,1393l-25806 52860zm-20931 -34825l0 -10411c0,-7258 4766,-9897 10997,-9897 6158,0 10997,2639 10997,9897l0 10411c0,7258 -4839,9897 -10997,9897 -6231,0 -10997,-2639 -10997,-9897z"/>
 </g>
</svg>
