<?xml version="1.0" encoding="UTF-8"?>
<!DOCTYPE svg PUBLIC "-//W3C//DTD SVG 1.1//EN" "http://www.w3.org/Graphics/SVG/1.1/DTD/svg11.dtd">
<!-- Creator: CorelDRAW X5 -->
<svg xmlns="http://www.w3.org/2000/svg" xml:space="preserve" width="2504px" height="2504px" style="shape-rendering:geometricPrecision; text-rendering:geometricPrecision; image-rendering:optimizeQuality; fill-rule:evenodd; clip-rule:evenodd"
viewBox="0 0 99101 99101"
 xmlns:xlink="http://www.w3.org/1999/xlink">
 <defs>
  <style type="text/css">
   <![CDATA[
    .str0 {stroke:#FEFEFE;stroke-width:934.921}
    .fil0 {fill:#E31E24}
   ]]>
  </style>
 </defs>
 <g id="Réteg_x0020_1">
  <metadata id="CorelCorpID_0Corel-Layer"/>
  <path class="fil0 str0" d="M33960 31353c-1843,0 -2914,892 -2914,2854l0 8444c0,1962 1070,2854 2914,2854 1843,0 2973,-892 2973,-2854l0 -8444c0,-1962 -1130,-2854 -2973,-2854zm62741 12594c-1609,-2054 -2145,-4751 -1445,-7264 1122,-4027 -648,-8299 -4288,-10353 -2273,-1282 -3800,-3568 -4115,-6158 -504,-4150 -3774,-7420 -7924,-7924 -2590,-314 -4876,-1842 -6158,-4115 -2054,-3641 -6326,-5411 -10353,-4288 -2513,701 -5210,164 -7264,-1445 -3291,-2578 -7915,-2578 -11206,0 -2054,1609 -4751,2145 -7264,1445 -4027,-1122 -8299,648 -10353,4288 -1282,2273 -3568,3800 -6158,4115 -4149,504 -7420,3774 -7924,7924 -314,2590 -1842,4876 -4115,6158 -3641,2054 -5411,6326 -4288,10353 701,2513 164,5210 -1445,7264 -2578,3291 -2578,7915 0,11206 1609,2054 2145,4751 1445,7264 -1122,4027 648,8299 4288,10353 2273,1282 3800,3568 4115,6158 504,4150 3774,7420 7924,7924 2590,314 4876,1842 6158,4115 2054,3641 6326,5411 10353,4288 2513,-701 5210,-164 7264,1445 3291,2578 7915,2578 11206,0 2054,-1609 4751,-2145 7264,-1445 4027,1122 8299,-647 10353,-4288 1282,-2273 3568,-3800 6158,-4115 4150,-504 7420,-3774 7924,-7924 314,-2590 1842,-4876 4115,-6158 3641,-2054 5411,-6326 4288,-10353 -701,-2513 -164,-5210 1445,-7264 2578,-3291 2578,-7915 0,-11206zm-31292 6553c-1843,0 -2914,892 -2914,2854l0 8444c0,1962 1070,2854 2914,2854 1843,0 2973,-892 2973,-2854l0 -8444c0,-1962 -1130,-2854 -2973,-2854zm8920 11298c0,5887 -3924,8028 -8919,8028 -5055,0 -8919,-2141 -8919,-8028l0 -8444c0,-5887 3865,-8027 8919,-8027 4995,0 8919,2141 8919,8027l0 8444zm-32312 9098c-416,892 -1546,1486 -2676,1486 -2022,0 -3330,-1665 -3330,-3152 0,-357 119,-773 297,-1130l20872 -42874c476,-1011 1427,-1486 2498,-1486 1665,0 3508,1249 3508,3152 0,357 -59,773 -238,1130l-20931 42874zm-16977 -28246l0 -8444c0,-5887 3865,-8028 8919,-8028 4995,0 8920,2141 8920,8028l0 8444c0,5887 -3925,8028 -8920,8028 -5054,0 -8919,-2140 -8919,-8028z"/>
 </g>
</svg>
