<?xml version="1.0" encoding="UTF-8"?>
<!DOCTYPE svg PUBLIC "-//W3C//DTD SVG 1.1//EN" "http://www.w3.org/Graphics/SVG/1.1/DTD/svg11.dtd">
<!-- Creator: CorelDRAW X5 -->
<svg xmlns="http://www.w3.org/2000/svg" xml:space="preserve" width="2504px" height="2504px" style="shape-rendering:geometricPrecision; text-rendering:geometricPrecision; image-rendering:optimizeQuality; fill-rule:evenodd; clip-rule:evenodd"
viewBox="0 0 1548543 1548541"
 xmlns:xlink="http://www.w3.org/1999/xlink">
 <defs>
  <style type="text/css">
   <![CDATA[
    .str0 {stroke:#009846;stroke-width:14608.9}
    .fil0 {fill:#EF7F1A}
   ]]>
  </style>
 </defs>
 <g id="Réteg_x0020_1">
  <metadata id="CorelCorpID_0Corel-Layer"/>
  <path class="fil0 str0" d="M530654 489924c-28802,0 -45529,13938 -45529,44603l0 131943c0,30665 16721,44603 45529,44603 28804,0 46463,-13938 46463,-44603l0 -131943c0,-30666 -17659,-44603 -46463,-44603zm980374 196795c-25139,-32096 -33522,-74231 -22577,-113506 17539,-62918 -10120,-129686 -67008,-161776 -35511,-20028 -59380,-55752 -64294,-96225 -7876,-64842 -58976,-115944 -123817,-123817 -40473,-4914 -76194,-28785 -96225,-64294 -32090,-56894 -98855,-84546 -161776,-67008 -39274,10947 -81410,2565 -113506,-22577 -51417,-40281 -123686,-40281 -175106,0 -32093,25145 -74231,33522 -113506,22577 -62918,-17539 -129686,10120 -161776,67008 -20028,35511 -55752,59380 -96228,64294 -64839,7876 -115938,58976 -123814,123817 -4914,40473 -28785,76194 -64294,96225 -56894,32090 -84546,98855 -67008,161776 10947,39274 2565,81410 -22577,113506 -40281,51417 -40281,123686 0,175103 25145,32096 33522,74231 22577,113506 -17539,62918 10120,129686 67008,161776 35511,20028 59380,55752 64294,96225 7876,64842 58976,115944 123817,123817 40473,4914 76194,28785 96228,64294 32090,56894 98855,84546 161776,67008 39274,-10947 81410,-2565 113506,22577 51417,40281 123686,40281 175106,0 32093,-25145 74231,-33522 113506,-22577 62918,17539 129686,-10117 161776,-67008 20028,-35511 55752,-59380 96225,-64294 64842,-7876 115944,-58976 123817,-123817 4914,-40473 28785,-76194 64294,-96225 56894,-32090 84546,-98855 67008,-161776 -10947,-39274 -2565,-81410 22577,-113506 40278,-51420 40278,-123686 -3,-175103zm-488957 102397c-28801,0 -45532,13937 -45532,44603l0 131944c0,30661 16724,44603 45532,44603 28805,0 46459,-13937 46459,-44603l0 -131944c0,-30661 -17658,-44603 -46459,-44603zm139377 176547c0,91988 -61323,125437 -139374,125437 -78981,0 -139374,-33452 -139374,-125437l0 -131944c0,-91988 60396,-125436 139374,-125436 78051,0 139374,33452 139374,125436l0 131944zm-504897 142165c-6504,13937 -24162,23227 -41812,23227 -31595,0 -52036,-26019 -52036,-49246 0,-5578 1857,-12081 4647,-17655l326140 -669935c7434,-15794 22298,-23227 39026,-23227 26019,0 54819,19514 54819,49246 0,5574 -926,12077 -3717,17655l-327066 669935zm-265275 -441361l0 -131943c0,-91985 60401,-125437 139374,-125437 78051,0 139377,33452 139377,125437l0 131943c0,91992 -61327,125437 -139377,125437 -78974,0 -139374,-33445 -139374,-125437z"/>
 </g>
</svg>
